<mxfile host="app.diagrams.net" modified="2024-04-07T21:49:57.194Z" agent="Mozilla/5.0 (Windows NT 10.0; Win64; x64) AppleWebKit/537.36 (KHTML, like Gecko) Chrome/123.0.0.0 Safari/537.36" etag="8EWYE-8_vgLCFFL1U8Uj" version="24.1.0" type="github">
  <diagram id="R2lEEEUBdFMjLlhIrx00" name="Page-1">
    <mxGraphModel dx="1050" dy="522" grid="1" gridSize="10" guides="1" tooltips="1" connect="1" arrows="1" fold="1" page="1" pageScale="1" pageWidth="850" pageHeight="1100" math="0" shadow="0" extFonts="Permanent Marker^https://fonts.googleapis.com/css?family=Permanent+Marker">
      <root>
        <mxCell id="0" />
        <mxCell id="1" parent="0" />
        <mxCell id="GcYD8DY2rKu0b3z0CZT5-1" value="&lt;b&gt;QUESTION 2&amp;nbsp;&lt;/b&gt;" style="text;html=1;align=center;verticalAlign=middle;whiteSpace=wrap;rounded=0;" vertex="1" parent="1">
          <mxGeometry x="290" y="10" width="210" height="30" as="geometry" />
        </mxCell>
        <mxCell id="GcYD8DY2rKu0b3z0CZT5-28" value="&lt;b&gt;1NF&lt;/b&gt;" style="text;html=1;align=center;verticalAlign=middle;whiteSpace=wrap;rounded=0;" vertex="1" parent="1">
          <mxGeometry x="40" y="50" width="60" height="30" as="geometry" />
        </mxCell>
        <mxCell id="GcYD8DY2rKu0b3z0CZT5-31" value="&lt;b&gt;2NF&lt;/b&gt;" style="text;html=1;align=center;verticalAlign=middle;whiteSpace=wrap;rounded=0;" vertex="1" parent="1">
          <mxGeometry x="40" y="360" width="60" height="30" as="geometry" />
        </mxCell>
        <mxCell id="GcYD8DY2rKu0b3z0CZT5-85" value="CustName" style="shape=partialRectangle;connectable=0;fillColor=none;top=0;left=0;bottom=0;right=0;align=left;spacingLeft=6;overflow=hidden;whiteSpace=wrap;html=1;" vertex="1" parent="1">
          <mxGeometry x="70" y="570" width="150" height="30" as="geometry">
            <mxRectangle width="150" height="30" as="alternateBounds" />
          </mxGeometry>
        </mxCell>
        <mxCell id="GcYD8DY2rKu0b3z0CZT5-90" value="AggrementItem" style="swimlane;childLayout=stackLayout;horizontal=1;startSize=50;horizontalStack=0;rounded=1;fontSize=14;fontStyle=0;strokeWidth=2;resizeParent=0;resizeLast=1;shadow=0;dashed=0;align=center;arcSize=4;whiteSpace=wrap;html=1;" vertex="1" parent="1">
          <mxGeometry x="345" y="420" width="160" height="120" as="geometry" />
        </mxCell>
        <mxCell id="GcYD8DY2rKu0b3z0CZT5-91" value="Hours&lt;div&gt;RentalCode&lt;/div&gt;&lt;div&gt;&lt;br&gt;&lt;/div&gt;" style="align=left;strokeColor=none;fillColor=none;spacingLeft=4;fontSize=12;verticalAlign=top;resizable=0;rotatable=0;part=1;html=1;" vertex="1" parent="GcYD8DY2rKu0b3z0CZT5-90">
          <mxGeometry y="50" width="160" height="70" as="geometry" />
        </mxCell>
        <mxCell id="GcYD8DY2rKu0b3z0CZT5-92" value="AggrementNumber" style="swimlane;childLayout=stackLayout;horizontal=1;startSize=50;horizontalStack=0;rounded=1;fontSize=14;fontStyle=0;strokeWidth=2;resizeParent=0;resizeLast=1;shadow=0;dashed=0;align=center;arcSize=4;whiteSpace=wrap;html=1;" vertex="1" parent="1">
          <mxGeometry x="40" y="420" width="160" height="140" as="geometry" />
        </mxCell>
        <mxCell id="GcYD8DY2rKu0b3z0CZT5-93" value="CustNumber&#39;&lt;div&gt;CustName&#39;&lt;/div&gt;&lt;div&gt;CustAddress&lt;/div&gt;&lt;div&gt;Date&#39;&lt;/div&gt;&lt;div&gt;Time&lt;/div&gt;" style="align=left;strokeColor=none;fillColor=none;spacingLeft=4;fontSize=12;verticalAlign=top;resizable=0;rotatable=0;part=1;html=1;" vertex="1" parent="GcYD8DY2rKu0b3z0CZT5-92">
          <mxGeometry y="50" width="160" height="90" as="geometry" />
        </mxCell>
        <mxCell id="GcYD8DY2rKu0b3z0CZT5-94" value="ItemNumber" style="swimlane;childLayout=stackLayout;horizontal=1;startSize=50;horizontalStack=0;rounded=1;fontSize=14;fontStyle=0;strokeWidth=2;resizeParent=0;resizeLast=1;shadow=0;dashed=0;align=center;arcSize=4;whiteSpace=wrap;html=1;" vertex="1" parent="1">
          <mxGeometry x="190" y="610" width="160" height="120" as="geometry" />
        </mxCell>
        <mxCell id="GcYD8DY2rKu0b3z0CZT5-95" value="Desc&lt;div&gt;Rate&lt;/div&gt;" style="align=left;strokeColor=none;fillColor=none;spacingLeft=4;fontSize=12;verticalAlign=top;resizable=0;rotatable=0;part=1;html=1;" vertex="1" parent="GcYD8DY2rKu0b3z0CZT5-94">
          <mxGeometry y="50" width="160" height="70" as="geometry" />
        </mxCell>
        <mxCell id="GcYD8DY2rKu0b3z0CZT5-96" value="AggrementNumber" style="swimlane;childLayout=stackLayout;horizontal=1;startSize=50;horizontalStack=0;rounded=1;fontSize=14;fontStyle=0;strokeWidth=2;resizeParent=0;resizeLast=1;shadow=0;dashed=0;align=center;arcSize=4;whiteSpace=wrap;html=1;" vertex="1" parent="1">
          <mxGeometry x="50" y="120" width="160" height="140" as="geometry" />
        </mxCell>
        <mxCell id="GcYD8DY2rKu0b3z0CZT5-97" value="CustNumber&#39;&lt;div&gt;CustName&#39;&lt;/div&gt;&lt;div&gt;CustAddress&lt;/div&gt;&lt;div&gt;Date&#39;&lt;/div&gt;&lt;div&gt;Time&lt;/div&gt;" style="align=left;strokeColor=none;fillColor=none;spacingLeft=4;fontSize=12;verticalAlign=top;resizable=0;rotatable=0;part=1;html=1;" vertex="1" parent="GcYD8DY2rKu0b3z0CZT5-96">
          <mxGeometry y="50" width="160" height="90" as="geometry" />
        </mxCell>
        <mxCell id="GcYD8DY2rKu0b3z0CZT5-98" value="AggrementItem" style="swimlane;childLayout=stackLayout;horizontal=1;startSize=50;horizontalStack=0;rounded=1;fontSize=14;fontStyle=0;strokeWidth=2;resizeParent=0;resizeLast=1;shadow=0;dashed=0;align=center;arcSize=4;whiteSpace=wrap;html=1;" vertex="1" parent="1">
          <mxGeometry x="350" y="120" width="160" height="140" as="geometry" />
        </mxCell>
        <mxCell id="GcYD8DY2rKu0b3z0CZT5-99" value="ItemNumber&lt;div&gt;Desc&lt;/div&gt;&lt;div&gt;RentalCode&lt;/div&gt;&lt;div&gt;Hours&lt;/div&gt;&lt;div&gt;Rate&lt;/div&gt;" style="align=left;strokeColor=none;fillColor=none;spacingLeft=4;fontSize=12;verticalAlign=top;resizable=0;rotatable=0;part=1;html=1;" vertex="1" parent="GcYD8DY2rKu0b3z0CZT5-98">
          <mxGeometry y="50" width="160" height="90" as="geometry" />
        </mxCell>
        <mxCell id="GcYD8DY2rKu0b3z0CZT5-102" value="&lt;b&gt;3NF&lt;/b&gt;" style="text;html=1;align=center;verticalAlign=middle;whiteSpace=wrap;rounded=0;" vertex="1" parent="1">
          <mxGeometry x="40" y="760" width="60" height="30" as="geometry" />
        </mxCell>
        <mxCell id="GcYD8DY2rKu0b3z0CZT5-104" value="AggrementNumber" style="swimlane;childLayout=stackLayout;horizontal=1;startSize=50;horizontalStack=0;rounded=1;fontSize=14;fontStyle=0;strokeWidth=2;resizeParent=0;resizeLast=1;shadow=0;dashed=0;align=center;arcSize=4;whiteSpace=wrap;html=1;" vertex="1" parent="1">
          <mxGeometry x="40" y="800" width="160" height="120" as="geometry" />
        </mxCell>
        <mxCell id="GcYD8DY2rKu0b3z0CZT5-105" value="Date&lt;div&gt;Time&lt;/div&gt;" style="align=left;strokeColor=none;fillColor=none;spacingLeft=4;fontSize=12;verticalAlign=top;resizable=0;rotatable=0;part=1;html=1;" vertex="1" parent="GcYD8DY2rKu0b3z0CZT5-104">
          <mxGeometry y="50" width="160" height="70" as="geometry" />
        </mxCell>
        <mxCell id="GcYD8DY2rKu0b3z0CZT5-106" value="AggrementItem" style="swimlane;childLayout=stackLayout;horizontal=1;startSize=50;horizontalStack=0;rounded=1;fontSize=14;fontStyle=0;strokeWidth=2;resizeParent=0;resizeLast=1;shadow=0;dashed=0;align=center;arcSize=4;whiteSpace=wrap;html=1;" vertex="1" parent="1">
          <mxGeometry x="410" y="800" width="160" height="120" as="geometry" />
        </mxCell>
        <mxCell id="GcYD8DY2rKu0b3z0CZT5-107" value="Hours&lt;div&gt;RentalCode&lt;/div&gt;" style="align=left;strokeColor=none;fillColor=none;spacingLeft=4;fontSize=12;verticalAlign=top;resizable=0;rotatable=0;part=1;html=1;" vertex="1" parent="GcYD8DY2rKu0b3z0CZT5-106">
          <mxGeometry y="50" width="160" height="70" as="geometry" />
        </mxCell>
        <mxCell id="GcYD8DY2rKu0b3z0CZT5-108" value="CustomerNumber" style="swimlane;childLayout=stackLayout;horizontal=1;startSize=50;horizontalStack=0;rounded=1;fontSize=14;fontStyle=0;strokeWidth=2;resizeParent=0;resizeLast=1;shadow=0;dashed=0;align=center;arcSize=4;whiteSpace=wrap;html=1;" vertex="1" parent="1">
          <mxGeometry x="40" y="980" width="160" height="120" as="geometry" />
        </mxCell>
        <mxCell id="GcYD8DY2rKu0b3z0CZT5-109" value="CustName&lt;div&gt;CustAddress&lt;/div&gt;" style="align=left;strokeColor=none;fillColor=none;spacingLeft=4;fontSize=12;verticalAlign=top;resizable=0;rotatable=0;part=1;html=1;" vertex="1" parent="GcYD8DY2rKu0b3z0CZT5-108">
          <mxGeometry y="50" width="160" height="70" as="geometry" />
        </mxCell>
        <mxCell id="GcYD8DY2rKu0b3z0CZT5-111" value="ItemNumber" style="swimlane;childLayout=stackLayout;horizontal=1;startSize=50;horizontalStack=0;rounded=1;fontSize=14;fontStyle=0;strokeWidth=2;resizeParent=0;resizeLast=1;shadow=0;dashed=0;align=center;arcSize=4;whiteSpace=wrap;html=1;" vertex="1" parent="1">
          <mxGeometry x="410" y="970" width="160" height="120" as="geometry" />
        </mxCell>
        <mxCell id="GcYD8DY2rKu0b3z0CZT5-112" value="Desc&lt;div&gt;Rate&lt;/div&gt;" style="align=left;strokeColor=none;fillColor=none;spacingLeft=4;fontSize=12;verticalAlign=top;resizable=0;rotatable=0;part=1;html=1;" vertex="1" parent="GcYD8DY2rKu0b3z0CZT5-111">
          <mxGeometry y="50" width="160" height="70" as="geometry" />
        </mxCell>
      </root>
    </mxGraphModel>
  </diagram>
</mxfile>
